<svg width="96" height="80" viewBox="0 0 96 80" fill="none" xmlns="http://www.w3.org/2000/svg">
<g clip-path="url(#clip0_2791_37991)">
<path d="M50.2877 23.233L59.1186 39.1643L52.3783 62.6704L16.4912 52.3799L26.7817 16.4928L50.2877 23.233ZM51.7578 18.1063L28.2517 11.3661C25.432 10.5575 22.4635 12.203 21.6549 15.0227L11.3645 50.9098C10.5559 53.7295 12.2014 56.6981 15.0211 57.5066L50.9082 67.7971C53.7279 68.6056 56.6965 66.9601 57.505 64.1404L64.2453 40.6344C64.6349 39.2758 64.4714 37.8141 63.7693 36.5864L54.9385 20.6551C54.2693 19.4091 53.1164 18.4959 51.7578 18.1063ZM24.5581 43.5965L50.1917 50.9468L48.7216 56.0736L23.088 48.7232L24.5581 43.5965ZM27.4982 33.343L53.1318 40.6934L51.6618 45.8201L26.0281 38.4698L27.4982 33.343ZM30.4383 23.0896L48.3819 28.2348L46.9118 33.3615L28.9683 28.2163L30.4383 23.0896Z" fill="url(#paint0_linear_2791_37991)"/>
</g>
<path d="M58.4186 5.42494C58.7577 4.38134 60.2341 4.38134 60.5732 5.42494L60.9912 6.71136C61.1428 7.17807 61.5778 7.49406 62.0685 7.49406H63.4211C64.5184 7.49406 64.9746 8.89821 64.0869 9.54319L62.9926 10.3382C62.5956 10.6267 62.4295 11.138 62.5811 11.6047L62.9991 12.8911C63.3382 13.9347 62.1438 14.8025 61.256 14.1575L60.1617 13.3625C59.7647 13.074 59.2271 13.074 58.8301 13.3625L57.7358 14.1575C56.8481 14.8025 55.6536 13.9347 55.9927 12.8911L56.4107 11.6047C56.5623 11.138 56.3962 10.6267 55.9992 10.3382L54.9049 9.54319C54.0172 8.89821 54.4734 7.49406 55.5707 7.49406H56.9233C57.4141 7.49406 57.849 7.17807 58.0006 6.71136L58.4186 5.42494Z" fill="url(#paint1_linear_2791_37991)"/>
<path d="M81.605 8.84161C82.7393 7.61701 84.778 8.55938 84.5801 10.2168L84.3409 12.2204C84.2524 12.9616 84.6512 13.6756 85.3288 13.9888L87.1604 14.8354C88.6756 15.5358 88.4093 17.7659 86.7719 18.0899L84.7924 18.4815C84.0601 18.6264 83.5044 19.2264 83.4159 19.9676L83.1767 21.9712C82.9788 23.6286 80.7756 24.0646 79.9614 22.6073L78.9773 20.8458C78.6132 20.1941 77.8709 19.851 77.1386 19.9959L75.1591 20.3875C73.5216 20.7115 72.4262 18.7508 73.5606 17.5262L74.9318 16.0459C75.439 15.4982 75.536 14.6862 75.1719 14.0345L74.1878 12.273C73.3736 10.8157 74.8999 9.16804 76.4151 9.86844L78.2466 10.7151C78.9242 11.0283 79.7265 10.8696 80.2338 10.3219L81.605 8.84161Z" fill="url(#paint2_linear_2791_37991)"/>
<path d="M66.47 24.6937C66.7279 23.8999 67.8509 23.9 68.1088 24.6937L68.4519 25.7497C68.5672 26.1046 68.898 26.345 69.2713 26.345H70.3815C71.2161 26.345 71.5632 27.413 70.8879 27.9036L69.9897 28.5562C69.6877 28.7756 69.5614 29.1644 69.6767 29.5194L70.0198 30.5754C70.2777 31.3691 69.3692 32.0292 68.694 31.5386L67.7958 30.886C67.4938 30.6666 67.0849 30.6666 66.783 30.886L65.8847 31.5386C65.2095 32.0292 64.301 31.3691 64.5589 30.5754L64.902 29.5194C65.0173 29.1644 64.891 28.7756 64.589 28.5562L63.6908 27.9036C63.0156 27.413 63.3626 26.345 64.1972 26.345H65.3075C65.6807 26.345 66.0115 26.1046 66.1269 25.7497L66.47 24.6937Z" fill="url(#paint3_linear_2791_37991)"/>
<defs>
<linearGradient id="paint0_linear_2791_37991" x1="9.89441" y1="56.0366" x2="56.7562" y2="68.8558" gradientUnits="userSpaceOnUse">
<stop stop-color="#1937ED"/>
<stop offset="0.495192" stop-color="#D429AF"/>
<stop offset="1" stop-color="#DD3131"/>
</linearGradient>
<linearGradient id="paint1_linear_2791_37991" x1="66.6932" y1="18.3489" x2="30.8031" y2="15.088" gradientUnits="userSpaceOnUse">
<stop offset="0.0865385" stop-color="#DB3044"/>
<stop offset="0.485577" stop-color="#3F35E0"/>
</linearGradient>
<linearGradient id="paint2_linear_2791_37991" x1="84.7836" y1="31.8439" x2="37.5264" y2="4.55996" gradientUnits="userSpaceOnUse">
<stop offset="0.0865385" stop-color="#DB3044"/>
<stop offset="0.423077" stop-color="#3F35E0"/>
</linearGradient>
<linearGradient id="paint3_linear_2791_37991" x1="61.25" y1="34.2506" x2="73.4747" y2="34.1011" gradientUnits="userSpaceOnUse">
<stop stop-color="#1937ED"/>
<stop offset="0.495192" stop-color="#D429AF"/>
<stop offset="1" stop-color="#DD3131"/>
</linearGradient>
<clipPath id="clip0_2791_37991">
<rect width="64" height="64" fill="white" transform="translate(17.6406) rotate(16)"/>
</clipPath>
</defs>
</svg>
