<svg preserveAspectRatio="none" width="100%" height="100%" overflow="visible" style="display: block;" viewBox="0 0 24 24" fill="none" xmlns="http://www.w3.org/2000/svg">
<g id="food-fork-drink 1">
<path id="Vector" d="M3 3C2.73478 3 2.48043 3.10536 2.29289 3.29289C2.10536 3.48043 2 3.73478 2 4V8V9.5C2 11.19 3.03 12.63 4.5 13.22V19.5C4.5 19.8978 4.65804 20.2794 4.93934 20.5607C5.22064 20.842 5.60218 21 6 21C6.39782 21 6.77936 20.842 7.06066 20.5607C7.34196 20.2794 7.5 19.8978 7.5 19.5V13.22C8.97 12.63 10 11.19 10 9.5V8V4C10 3.73478 9.89464 3.48043 9.70711 3.29289C9.51957 3.10536 9.26522 3 9 3C8.73478 3 8.48043 3.10536 8.29289 3.29289C8.10536 3.48043 8 3.73478 8 4V8C8 8.13261 7.94732 8.25979 7.85355 8.35355C7.75979 8.44732 7.63261 8.5 7.5 8.5C7.36739 8.5 7.24021 8.44732 7.14645 8.35355C7.05268 8.25979 7 8.13261 7 8V4C7 3.73478 6.89464 3.48043 6.70711 3.29289C6.51957 3.10536 6.26522 3 6 3C5.73478 3 5.48043 3.10536 5.29289 3.29289C5.10536 3.48043 5 3.73478 5 4V8C5 8.13261 4.94732 8.25979 4.85355 8.35355C4.75979 8.44732 4.63261 8.5 4.5 8.5C4.36739 8.5 4.24021 8.44732 4.14645 8.35355C4.05268 8.25979 4 8.13261 4 8V4C4 3.73478 3.89464 3.48043 3.70711 3.29289C3.51957 3.10536 3.26522 3 3 3ZM19.88 3C19.75 3 19.62 3.09 19.5 3.16L16 5.25V9H12V11H13L14 21H20L21 11H22V9H18V6.34L20.5 4.84C21 4.56 21.13 4 20.84 3.5C20.63 3.14 20.26 2.95 19.88 3Z" fill="var(--fill-0, #999999)"/>
</g>
</svg>
